<?xml version="1.0" encoding="utf-8"?>
<!-- Generator: Adobe Illustrator 25.4.1, SVG Export Plug-In . SVG Version: 6.00 Build 0)  -->
<svg version="1.1" id="Layer_1" xmlns="http://www.w3.org/2000/svg" xmlns:xlink="http://www.w3.org/1999/xlink" x="0px" y="0px"
	 viewBox="0 0 1464.59 238.38" style="enable-background:new 0 0 1464.59 238.38;" xml:space="preserve">
<style type="text/css">
	.st0{fill:#FC6625;}
	.st1{fill-rule:evenodd;clip-rule:evenodd;fill:#FC6625;}
</style>
<g>
	<g>
		<g>
			<path d="M143.34,74.47c-27.38,0-48.6,21.22-48.6,49.05s21.22,49.28,48.6,49.28c14.37,0,30.12-7.3,41.52-18.71l21.22,23.04
				c-16.88,17.34-41.3,28.52-64.57,28.52c-47.68,0-83.73-35.36-83.73-81.68c0-46.09,36.73-80.76,85.1-80.76
				c23.04,0,47.23,10.27,62.97,26.47l-20.99,25.55C173.92,82.68,158.17,74.47,143.34,74.47z"/>
			<path d="M331.34,173.03h-73.92l-12.55,31.03h-37.19l69.36-159.7h37.19l68.22,159.7h-38.56L331.34,173.03z M319.7,144.05L294.6,82
				l-25.32,62.06H319.7z"/>
			<path d="M497.2,204.05l-25.32-45.63h-3.42h-33.31v45.63h-36.05V44.35h69.36c41.75,0,65.48,20.08,65.48,55.44
				c0,24.64-10.49,42.44-29.89,51.56l33.99,52.7H497.2z M435.14,128.31h33.31c19.85,0,31.26-9.13,31.26-27.38
				c0-17.8-11.41-26.69-31.26-26.69h-33.31V128.31z"/>
			<path d="M671.5,123.52h31.26v61.37c-16.88,12.32-42.66,20.76-64.79,20.76c-48.37,0-85.1-35.13-85.1-81.45
				c0-46.09,37.42-80.99,87.15-80.99c23.73,0,47.91,9.13,64.11,23.27l-20.3,25.78c-11.86-10.95-28.29-17.8-43.8-17.8
				c-28.29,0-50.19,21.67-50.19,49.74c0,28.29,22.13,49.96,50.42,49.96c9.58,0,20.99-3.42,31.26-8.67V123.52z"/>
			<path d="M839.64,173.03h-73.92l-12.55,31.03h-37.19l69.36-159.7h37.19l68.22,159.7h-38.56L839.64,173.03z M828.01,144.05
				L802.91,82l-25.32,62.06H828.01z"/>
			<path class="st0" d="M977.21,74.47c-27.38,0-48.6,21.22-48.6,49.05s21.22,49.28,48.6,49.28c14.37,0,30.12-7.3,41.52-18.71
				l21.22,23.04c-16.88,17.34-41.29,28.52-64.57,28.52c-47.68,0-83.73-35.36-83.73-81.68c0-46.09,36.73-80.76,85.1-80.76
				c23.04,0,47.23,10.27,62.97,26.47l-20.99,25.55C1007.78,82.68,992.04,74.47,977.21,74.47z"/>
			<path class="st0" d="M1295.01,44.35l77.57,102.67V44.35h34.22v159.7h-32.85l-77.34-102.44v102.44h-34.45V44.35H1295.01z"/>
		</g>
		<g>
			<g>
				<path class="st1" d="M1153.13,30.12c4.04,0,8.02,0.27,11.92,0.8c-5.45,5.95-10.38,12.38-14.71,19.21
					c-6.61-1.84-12.55-4.08-17.63-6.65c4.95-4.82,10.27-9.25,15.89-13.24C1150.11,30.15,1151.62,30.12,1153.13,30.12 M1131.92,44.26
					c-6.17,6.1-11.76,12.82-16.66,20.08c5.97,4.38,13.5,8.43,22.21,11.92c3.04-8.31,6.87-16.26,11.41-23.75
					C1142.24,50.16,1136.51,47.38,1131.92,44.26 M1114.69,65.18c5.33,5.05,12.76,9.81,21.76,13.97c-1.52,4.46-2.81,9.03-3.86,13.67
					c-5.71-2.16-11.28-4.49-16.63-7.01c-2.17-1.02-5.91-2.88-10.07-5.25C1108.48,75.21,1111.43,70.08,1114.69,65.18 M1138.1,94.84
					c0.71-4.64,1.66-9.22,2.84-13.71c11.09,4.63,24.2,8.37,38.48,10.71c-0.57,4.67-1.36,9.34-2.37,13.99
					C1163.98,102.95,1150.74,99.31,1138.1,94.84 M1179.94,86.91c-0.91-0.11-1.82-0.24-2.73-0.36c-12.87-1.82-24.87-4.82-35.39-8.63
					c2.46-8.52,5.73-16.72,9.73-24.5c8.3,2.69,17.87,4.71,28.28,5.9C1180.71,68.44,1180.75,77.68,1179.94,86.91 M1179.37,55.06
					c-0.93-7.52-2.42-14.96-4.46-22.24c-2.92-0.74-5.9-1.33-8.94-1.77c-4.9,6.19-9.27,12.8-13.05,19.77
					C1160.94,52.85,1169.86,54.31,1179.37,55.06 M1182.78,107.05c0.73-4.82,1.22-9.64,1.48-14.47c10.84,1.51,21.32,2.08,31.04,1.81
					c1.45,5.92,2.5,12,3.13,18.2c-6.82-0.71-13.62-1.63-20.37-2.73C1193.04,109.04,1187.93,108.1,1182.78,107.05 M1213.58,88.04
					c-9.04,0.61-18.88,0.44-29.13-0.62c0.18-9.35-0.5-18.67-2.03-27.84c6.23,0.62,12.74,0.94,19.45,0.93
					C1206.75,69.14,1210.7,78.36,1213.58,88.04 M1198.92,55.57c-4.48-7.18-9.63-13.91-15.36-20.09c-2.64-0.96-5.34-1.81-8.09-2.52
					c2.61,7.25,4.67,14.7,6.16,22.26c4.89,0.32,9.92,0.46,15.07,0.39C1197.44,55.6,1198.18,55.58,1198.92,55.57 M1147.86,30.27
					c-23.85,1.4-48,13.65-63.31,32.24c2.23,5.26,9.59,10.88,16.84,15.38c3.14-5.47,6.65-10.69,10.5-15.61
					c-0.62-0.71-1.21-1.42-1.74-2.14c0.65,0.6,1.32,1.19,2.03,1.78c5.41-6.88,11.47-13.2,18.07-18.86
					c-1.42-1.06-2.71-2.15-3.86-3.28c1.4,0.94,2.91,1.85,4.51,2.72C1136.22,38,1141.9,33.9,1147.86,30.27 M1225.46,113.24
					c-0.96-6.54-2.39-12.93-4.26-19.12c5.89-0.38,11.45-1.09,16.57-2.09c2.23,7.02,3.61,14.43,4.02,22.09
					C1236.35,113.98,1230.9,113.68,1225.46,113.24 M1235.11,84.75c-3.85-9.23-9.22-17.67-15.79-25.02
					c-4.44,0.4-9.01,0.65-13.67,0.74c5.43,8.43,9.95,17.51,13.39,27.09C1224.81,86.95,1230.2,86,1235.11,84.75 M1202.25,55.45
					c-4.91-6.91-10.46-13.33-16.57-19.18c10.72,4.23,20.41,10.48,28.62,18.28C1210.38,54.98,1206.35,55.28,1202.25,55.45"/>
				<path class="st1" d="M1099.97,36.66c-0.09,0.28-4.05,7.83-3.96,8.49c0.09,0.67,18.52-12.11,18.52-12.11s-29.53,0.29-30.96,0.48
					c-1.15,0.15,10.13,2.08,14.61,2.83c-96.03,18.72-10.84,97.82,113.17,118.37c-12.05,19.79-33.83,33.02-58.69,33.02
					c-36.32,0-66.06-28.22-68.51-63.93c21.96,13.11,44.7,18.18,56.25,20.37c-8.93-3.4-17.62-7.16-26.01-11.27
					c-17.11-8.39-35.4-19.51-48.82-33.22c-1.38,6.23-2.11,12.71-2.11,19.36c0,49.26,39.94,89.2,89.2,89.2
					c35.43,0,66.04-20.67,80.43-50.6h0c4.88-10.15,7.9-21.38,8.61-33.22C1147.55,119.91,1026.15,65.23,1099.97,36.66z"/>
			</g>
		</g>
	</g>
</g>
</svg>
